<svg width="30" height="30" viewBox="0 0 30 30" fill="none" xmlns="http://www.w3.org/2000/svg">
<g clip-path="url(#clip0_1_1310)">
<path d="M29.4119 12.9412C29.7367 12.9412 30.0001 12.6778 30.0001 12.3529V7.64706C30.0001 7.32218 29.7367 7.05882 29.4119 7.05882H27.6471C27.6471 5.76141 26.5916 4.70588 25.2942 4.70588H24.1177V1.76471C24.1177 1.43982 23.8544 1.17647 23.5295 1.17647H22.9413V0.588235C22.9413 0.263353 22.6779 0 22.353 0C22.0281 0 21.7648 0.263353 21.7648 0.588235V1.17647H21.1766C20.8517 1.17647 20.5883 1.43982 20.5883 1.76471V4.70588H9.41185V2.94118C9.41185 2.61629 9.1485 2.35294 8.82362 2.35294H6.47067C6.14579 2.35294 5.88244 2.61629 5.88244 2.94118V4.70588H4.70597C3.40856 4.70588 2.35303 5.76141 2.35303 7.05882V15.2941C2.35303 15.619 2.61638 15.8824 2.94126 15.8824H4.70597V17.6471C4.70597 17.9719 4.96932 18.2353 5.2942 18.2353H5.88244V20C5.88244 20.3249 6.14579 20.5882 6.47067 20.5882C6.79556 20.5882 7.05891 20.3249 7.05891 20V18.2353H7.64715C7.97203 18.2353 8.23538 17.9719 8.23538 17.6471V15.8824H10.0001C10.325 15.8824 10.5883 15.619 10.5883 15.2941V11.7647C10.5883 11.116 11.1161 10.5882 11.7648 10.5882H14.1177C14.7664 10.5882 15.2942 11.116 15.2942 11.7647V21.7647H9.41185C9.08697 21.7647 8.82362 22.0281 8.82362 22.3529C8.82362 22.6778 9.08697 22.9412 9.41185 22.9412H28.8236V24.1176C28.8236 24.7664 28.2959 25.2941 27.6471 25.2941H9.41185C9.08697 25.2941 8.82362 25.5575 8.82362 25.8824C8.82362 26.2072 9.08697 26.4706 9.41185 26.4706H27.6471C28.9446 26.4706 30.0001 25.4151 30.0001 24.1176V22.3529C30.0001 22.0281 29.7367 21.7647 29.4119 21.7647H27.6471V12.9412H29.4119ZM27.6471 8.23529H28.8236V11.7647H27.6471V8.23529ZM21.7648 2.35294H22.9413V4.70588H21.7648V2.35294ZM7.05891 3.52941H8.23538V4.70588H7.05891V3.52941ZM7.05891 17.0588H5.88244V15.8824H7.05891V17.0588ZM26.4707 21.7647H16.4707V11.7647C16.4707 10.4673 15.4151 9.41177 14.1177 9.41177H11.7648C10.4674 9.41177 9.41185 10.4673 9.41185 11.7647V14.7059C8.70003 14.7059 4.24626 14.7059 3.5295 14.7059V7.05882C3.5295 6.41012 4.05726 5.88235 4.70597 5.88235H25.2942C25.9429 5.88235 26.4707 6.41012 26.4707 7.05882V21.7647Z" fill="black"/>
<path d="M3.52941 22.9411C3.85429 22.9411 4.11765 22.6778 4.11765 22.3529C4.11765 22.028 3.85429 21.7646 3.52941 21.7646H0.588235C0.263353 21.7646 0 22.028 0 22.3529V24.1176C0 25.415 1.05553 26.4705 2.35294 26.4705H3.52941C3.85429 26.4705 4.11765 26.2072 4.11765 25.8823C4.11765 25.5574 3.85429 25.2941 3.52941 25.2941H2.35294C1.70424 25.2941 1.17647 24.7663 1.17647 24.1176V22.9411H3.52941Z" fill="black"/>
<path d="M21.4709 11.7647C22.608 11.7647 23.5298 10.843 23.5298 9.70592C23.5298 8.56886 22.608 7.64709 21.4709 7.64709C20.3339 7.64709 19.4121 8.56886 19.4121 9.70592C19.4121 10.843 20.3339 11.7647 21.4709 11.7647Z" fill="#CC98FF"/>
<path d="M10.0002 30H2.94141V19.4117H10.0002V30Z" fill="#CC98FF"/>
<path d="M6.47056 22.3529C6.14568 22.3529 5.88232 22.6163 5.88232 22.9411V23.5294C5.88232 23.8543 6.14568 24.1176 6.47056 24.1176C6.79544 24.1176 7.05879 23.8543 7.05879 23.5294V22.9411C7.05879 22.6163 6.79544 22.3529 6.47056 22.3529Z" fill="black"/>
<path d="M6.47056 25.2941C6.14568 25.2941 5.88232 25.5574 5.88232 25.8823V26.4705C5.88232 26.7954 6.14568 27.0588 6.47056 27.0588C6.79544 27.0588 7.05879 26.7954 7.05879 26.4705V25.8823C7.05879 25.5574 6.79544 25.2941 6.47056 25.2941Z" fill="black"/>
</g>
<defs>
<clipPath id="clip0_1_1310">
<rect width="30" height="30" fill="white"/>
</clipPath>
</defs>
</svg>
