<svg width="30" height="30" viewBox="0 0 30 30" fill="none" xmlns="http://www.w3.org/2000/svg">
<g clip-path="url(#clip0_1_1275)">
<path d="M7.05756 1.76256C7.05756 1.1127 6.53074 0.585938 5.88088 0.585938H1.76262C1.11275 0.585938 0.585938 1.11275 0.585938 1.76256V5.29254H7.05756V1.76256Z" fill="#FFB800"/>
<path d="M22.9424 24.7074V28.2374C22.9424 28.8872 23.4692 29.4141 24.1191 29.4141H28.2374C28.8872 29.4141 29.4141 28.8872 29.4141 28.2374V24.7074H22.9424Z" fill="#FFB800"/>
<path d="M29.6709 6.94248C29.666 6.91805 29.6593 6.89437 29.6515 6.87123C28.5405 2.91182 24.8986 0 20.5891 0C15.4 0 11.1783 4.22174 11.1783 9.41086V20.5891C11.1783 21.5636 10.3854 22.3564 9.41092 22.3564C8.43639 22.3564 7.64355 21.5636 7.64355 20.5891V1.76262C7.6435 0.790723 6.85277 0 5.88088 0H1.76262C0.790723 0 0 0.790723 0 1.76262V20.5891C0 25.7995 4.24383 30 9.41086 30C14.6 30 18.8217 25.7783 18.8217 20.5891V9.41086C18.8217 8.43633 19.6145 7.6435 20.5891 7.6435C21.5636 7.6435 22.3564 8.43633 22.3564 9.41086V28.2374C22.3564 29.2093 23.1472 30 24.1191 30H28.2373C29.2093 30 30 29.2093 30 28.2374V9.41086C30 8.55697 29.885 7.72951 29.6709 6.94248ZM28.2374 28.8281H24.1191C23.7933 28.8281 23.5284 28.5632 23.5284 28.2374V9.41086C23.5284 7.79016 22.2098 6.47162 20.5891 6.47162C18.9684 6.47162 17.6499 7.79016 17.6499 9.41086V20.5891C17.6499 25.1321 13.9539 28.8281 9.41092 28.8281C5.90291 28.8281 2.90051 26.6241 1.71428 23.5283H3.52758C3.85113 23.5283 4.11352 23.2659 4.11352 22.9424C4.11352 22.6188 3.85113 22.3564 3.52758 22.3564H1.36336C1.10871 21.1959 1.18588 20.374 1.17188 19.9983H2.3509C2.67445 19.9983 2.93684 19.736 2.93684 19.4124C2.93684 19.0888 2.67445 18.8265 2.3509 18.8265H1.17188V16.4684H3.52758C3.85113 16.4684 4.11352 16.2061 4.11352 15.8825C4.11352 15.5589 3.85113 15.2965 3.52758 15.2965H1.17188V12.9384H2.3509C2.67445 12.9384 2.93684 12.6761 2.93684 12.3525C2.93684 12.0289 2.67445 11.7666 2.3509 11.7666H1.17188V9.40846H3.52758C3.85113 9.40846 4.11352 9.14607 4.11352 8.82252C4.11352 8.49891 3.85113 8.23658 3.52758 8.23658H1.17188V1.76262C1.17188 1.43684 1.43684 1.17188 1.76262 1.17188H5.88088C6.20666 1.17188 6.47162 1.43684 6.47162 1.76262V20.5891C6.47162 22.2098 7.79016 23.5284 9.41086 23.5284C11.0316 23.5284 12.3501 22.2098 12.3501 20.5891V9.41086C12.3501 4.86785 16.0461 1.17188 20.5891 1.17188C24.0971 1.17188 27.0996 3.37588 28.2858 6.47162H26.4725C26.1489 6.47162 25.8865 6.734 25.8865 7.05756C25.8865 7.38111 26.1489 7.6435 26.4725 7.6435H28.6367C28.8913 8.804 28.8142 9.6259 28.8282 10.0016H27.6492C27.3256 10.0016 27.0632 10.264 27.0632 10.5875C27.0632 10.9111 27.3256 11.1735 27.6492 11.1735H28.8281V13.5315H26.4724C26.1489 13.5315 25.8865 13.7938 25.8865 14.1175C25.8865 14.441 26.1489 14.7034 26.4724 14.7034H28.8281V17.0615H27.6491C27.3255 17.0615 27.0632 17.3239 27.0632 17.6474C27.0632 17.971 27.3255 18.2334 27.6491 18.2334H28.8281V20.5915H26.4724C26.1489 20.5915 25.8865 20.8539 25.8865 21.1774C25.8865 21.501 26.1489 21.7634 26.4724 21.7634H28.8281V28.2373C28.8281 28.5632 28.5632 28.8281 28.2374 28.8281Z" fill="black"/>
</g>
<defs>
<clipPath id="clip0_1_1275">
<rect width="30" height="30" fill="white"/>
</clipPath>
</defs>
</svg>
