<svg width="30" height="30" viewBox="0 0 30 30" fill="none" xmlns="http://www.w3.org/2000/svg">
<g clip-path="url(#clip0_1_1299)">
<path d="M22.3541 26.4725C22.3541 24.7564 21.1774 24.7564 21.1774 23.0403C21.1774 21.3243 22.3541 21.3243 22.3541 19.6082C22.3541 17.8922 21.1774 17.8922 21.1774 16.1762C21.1774 14.4603 22.3541 14.4603 22.3541 12.7444C22.3541 11.0286 21.1774 11.0286 21.1774 9.3127C21.1774 7.59678 22.3541 7.59678 22.3541 5.88086H18.8241C18.8241 7.59678 17.6475 7.59678 17.6475 9.3127C17.6475 11.0286 18.8241 11.0286 18.8241 12.7444C18.8241 14.4603 17.6475 14.4603 17.6475 16.1762C17.6475 17.8922 18.8241 17.8922 18.8241 19.6082C18.8241 21.3242 17.6475 21.3242 17.6475 23.0403C17.6475 24.7564 18.8241 24.7564 18.8241 26.4725H22.3541Z" fill="#FF9DC6"/>
<path d="M27.6491 5.29495H11.1735V4.70427C11.1735 3.92731 10.0666 2.94165 8.82252 2.94165H2.3509C1.10689 2.94165 0 3.92731 0 4.70427V24.1191C0 24.4427 0.262324 24.7051 0.585938 24.7051C0.909551 24.7051 1.17188 24.4427 1.17188 24.1191V4.74546C1.25479 4.56481 1.73936 4.11353 2.3509 4.11353H8.82252C9.43412 4.11353 9.91869 4.56481 10.0016 4.74546V24.1191C10.0016 24.4426 10.264 24.705 10.5875 24.705C10.9111 24.705 11.1735 24.4426 11.1735 24.1191V6.46683H13.5315V25.8865H8.23418C7.91057 25.8865 7.64824 26.1489 7.64824 26.4724C7.64824 26.796 7.91057 27.0584 8.23418 27.0584H27.6491C28.9454 27.0584 30 26.0037 30 24.7075V7.64591C30 6.34958 28.9454 5.29495 27.6491 5.29495ZM14.7035 6.46683H25.2981V25.8865H14.7035V6.46683ZM28.8281 24.7075C28.8281 25.3576 28.2993 25.8865 27.6491 25.8865H26.47V6.46683H27.6491C28.2993 6.46683 28.8281 6.99575 28.8281 7.64591V24.7075Z" fill="black"/>
<path d="M8.23418 27.0584H2.93924C1.31853 27.0584 0 25.7399 0 24.1192C0 22.4985 1.31853 21.1799 2.93924 21.1799H8.23418C9.85488 21.1799 11.1735 22.4985 11.1735 24.1192C11.1735 25.7399 9.85488 27.0584 8.23418 27.0584Z" fill="#FF9DC6"/>
<path d="M8.82033 24.1191C8.82033 23.7956 8.55795 23.5332 8.2344 23.5332H2.93945C2.61584 23.5332 2.35352 23.7956 2.35352 24.1191C2.35352 24.4427 2.61584 24.7051 2.93945 24.7051H8.2344C8.55801 24.7051 8.82033 24.4427 8.82033 24.1191Z" fill="black"/>
</g>
<defs>
<clipPath id="clip0_1_1299">
<rect width="30" height="30" fill="white"/>
</clipPath>
</defs>
</svg>
