<svg width="30" height="30" viewBox="0 0 30 30" fill="none" xmlns="http://www.w3.org/2000/svg">
<g clip-path="url(#clip0_1_1327)">
<path d="M17.4418 26.1243H12.8827C12.5591 26.1243 12.2968 25.862 12.2968 25.5384C12.2968 25.2148 12.5591 24.9525 12.8827 24.9525H16.8559V15.8034C16.8559 15.4798 17.1182 15.2175 17.4418 15.2175C17.7654 15.2175 18.0278 15.4798 18.0278 15.8034V25.5383C18.0278 25.862 17.7654 26.1243 17.4418 26.1243ZM4.4619 17.7034C4.13829 17.7034 3.87598 17.4411 3.87598 17.1175V12.5585C3.87598 12.2349 4.13829 11.9725 4.4619 11.9725H14.1968C14.5204 11.9725 14.7828 12.2349 14.7828 12.5585C14.7828 12.8821 14.5204 13.1444 14.1968 13.1444H5.04782V17.1175C5.04782 17.4411 4.7855 17.7034 4.4619 17.7034Z" fill="black"/>
<path fill-rule="evenodd" clip-rule="evenodd" d="M7.57047 22.4295C9.51427 21.5299 11.334 20.3378 13.0329 19.0458L13.2675 18.8673L14.9117 21.0274L13.835 22.5348L14.9077 24.0366L13.835 25.5384L14.9305 27.0721L12.0026 30L10.4689 28.9045L8.96708 29.9772L7.4653 28.9045L5.96346 29.9772L4.46163 28.9045L2.92791 30L0 27.0721L1.0955 25.5384L0.0227924 24.0365L1.09556 22.5347L0.0227924 21.0329L1.09556 19.5311L0 17.9974L2.92791 15.0695L4.46163 16.165L5.9634 15.0922L7.46524 16.165L8.97264 15.0882L11.1326 16.7324L10.9542 16.9671C9.66216 18.666 8.47004 20.4857 7.57047 22.4295Z" fill="#6BE9FF"/>
<path d="M29.2035 6.41476C28.5697 5.78091 27.6631 5.51133 26.6508 5.65617C25.7008 5.79187 24.7613 6.28293 24.0054 7.03894C23.2494 7.79496 22.7583 8.73449 22.6226 9.68444C22.6121 9.75792 22.6038 9.83086 22.5976 9.90317C22.5479 9.95291 22.4982 10.0025 22.4486 10.0521L19.3397 9.2191L19.1166 8.38662C19.4394 8.06155 19.7663 7.73367 20.0971 7.40268C20.1694 7.39653 20.2423 7.38827 20.3158 7.37772C21.2658 7.24202 22.2053 6.7509 22.9613 5.99495C23.7173 5.23899 24.2084 4.29946 24.3441 3.34951C24.4887 2.33721 24.2193 1.43061 23.5855 0.796875C22.9517 0.163082 22.0452 -0.106442 21.0329 0.0383393C20.083 0.174039 19.1434 0.665159 18.3874 1.42112C17.6315 2.17713 17.1403 3.11666 17.0046 4.06662C16.86 5.07891 17.1294 5.98551 17.7632 6.61925C18.0164 6.87248 18.3132 7.06748 18.6428 7.20124C13.0566 12.8115 8.63204 17.5895 6.4534 22.78C6.36129 22.9994 6.41104 23.2528 6.57932 23.421C6.69146 23.5332 6.84134 23.5927 6.9938 23.5927C7.07014 23.5927 7.14719 23.5777 7.22043 23.547C12.411 21.3683 17.189 16.9437 22.7992 11.3575C22.9329 11.6872 23.1279 11.984 23.3812 12.2372C23.9031 12.7591 24.61 13.0339 25.4086 13.0339C25.5798 13.0339 25.7552 13.0213 25.9339 12.9958C26.8838 12.8601 27.8233 12.369 28.5794 11.613C29.3353 10.857 29.8264 9.91746 29.9621 8.96751C30.1066 7.95509 29.8373 7.04849 29.2035 6.41476ZM21.4884 11.008C21.0431 11.4497 20.603 11.8836 20.1677 12.3091L19.6899 10.5261L21.4884 11.008ZM18.1646 4.2322C18.2647 3.53161 18.6381 2.82751 19.216 2.24967C19.9123 1.5533 20.7962 1.17772 21.5568 1.17772C22.0292 1.17772 22.454 1.32262 22.7568 1.62543C23.5473 2.41595 23.2615 4.0375 22.1326 5.16633C21.5547 5.74423 20.8506 6.11758 20.15 6.21771C19.5117 6.30894 18.9583 6.15719 18.5917 5.79058C18.2252 5.42391 18.0735 4.8705 18.1646 4.2322ZM18.1621 9.35217L19.2047 13.2432C15.3454 16.9573 11.8266 19.954 8.19974 21.8004C10.2737 17.7266 13.7991 13.7891 18.1621 9.35217ZM27.7506 10.7842C27.1727 11.3621 26.4686 11.7355 25.768 11.8355C25.1298 11.9267 24.5763 11.775 24.2097 11.4084C23.8431 11.0418 23.6914 10.4884 23.7826 9.85014C23.8827 9.1495 24.2561 8.44539 24.834 7.86756C25.4118 7.28966 26.1159 6.91631 26.8165 6.81623C26.9377 6.79895 27.0557 6.79039 27.17 6.79039C27.6581 6.79039 28.0778 6.94637 28.3748 7.24337C29.1653 8.03384 28.8795 9.65538 27.7506 10.7842Z" fill="black"/>
<path d="M17.9178 12.1186L17.9175 12.1182C17.6989 11.8797 17.3284 11.8638 17.0898 12.0824C16.8513 12.3011 16.8353 12.672 17.054 12.9105C17.1695 13.0366 17.3275 13.1005 17.486 13.1005C17.6275 13.1005 17.7693 13.0496 17.8818 12.9465C18.1204 12.7278 18.1365 12.3571 17.9178 12.1186Z" fill="black"/>
</g>
<defs>
<clipPath id="clip0_1_1327">
<rect width="30" height="30" fill="white"/>
</clipPath>
</defs>
</svg>
