<svg width="30" height="30" viewBox="0 0 30 30" fill="none" xmlns="http://www.w3.org/2000/svg">
<g clip-path="url(#clip0_1_1287)">
<path d="M20.0034 12.3439H25.8897V14.6984H20.0034V12.3439Z" fill="#74C27C"/>
<path d="M16.4717 9.98941C16.5256 9.77977 16.2534 10.8394 17.131 7.42299L15.0002 6.09985L12.8846 7.41356C13.1018 8.28249 13.316 9.13918 13.5286 9.98947L11.7627 21.7619L15.0001 25.4929L18.2375 21.7619L16.4717 9.98941Z" fill="#74C27C"/>
<path d="M24.1237 2.92857H21.8769C20.4593 0.209577 20.5045 0.259557 20.3961 0.158485C20.2814 0.0513185 20.1364 0.000518624 19.9968 0.000518624C9.41158 0.000694402 9.98807 -0.00317272 9.91518 0.00784271C9.76981 0.029815 9.64565 0.103759 9.55853 0.205476C9.47644 0.301158 9.55167 0.195925 8.12306 2.92857H5.87627C4.57949 2.92857 3.52441 3.98359 3.52441 5.28043V27.6482C3.52441 28.945 4.57943 30 5.87627 30H24.1237C25.4205 30 26.4755 28.945 26.4755 27.6482V5.28043C26.4755 3.98359 25.4205 2.92857 24.1237 2.92857ZM15 5.22728L11.3249 1.17243H18.675L15 5.22728ZM19.8658 1.60356L20.85 3.49393L18.2457 7.42562L15.9059 5.97264L19.8658 1.60356ZM10.1341 1.60356L14.094 5.97264L11.7542 7.42562L9.1499 3.49387L10.1341 1.60356ZM25.3036 27.6482C25.3036 28.2988 24.7743 28.8282 24.1236 28.8282H5.87627C5.22565 28.8282 4.69627 28.2989 4.69627 27.6482V5.28043C4.69627 4.62981 5.2256 4.10043 5.87627 4.10043H8.14603L11.0914 8.54714C11.2655 8.80999 11.6185 8.88927 11.889 8.72134L15 6.78954L18.111 8.72134C18.379 8.8878 18.7327 8.81251 18.9085 8.54714L21.8539 4.10043H24.1237C24.7744 4.10043 25.3037 4.62975 25.3037 5.28043V27.6482H25.3036Z" fill="black"/>
</g>
<defs>
<clipPath id="clip0_1_1287">
<rect width="30" height="30" fill="white"/>
</clipPath>
</defs>
</svg>
