<svg width="34" height="34" viewBox="0 0 34 34" fill="none" xmlns="http://www.w3.org/2000/svg">
<path d="M5.66602 25H28.3325V33.3332H5.66602V25Z" fill="#EB7171"/>
<path d="M33.919 14.3484C28.5789 4.52383 28.9087 5.10403 28.8141 5.00543C28.766 4.95523 28.7081 4.91109 28.6455 4.87789C28.5653 4.83549 28.8639 4.94389 23.4286 3.10791L21.5631 0.309464C21.4364 0.109933 21.2131 -0.00539983 20.9909 0.000200122H13.0093C12.7841 -0.00553317 12.5623 0.112266 12.4371 0.309464L10.5715 3.10791C5.00279 4.98823 5.39618 4.8423 5.28212 4.92289C5.19465 4.98476 5.12605 5.06563 5.08105 5.14849L0.0810925 14.3484C-0.101106 14.6837 0.0349596 15.1017 0.37669 15.267L5.00012 17.5016V33.3333C5.00012 33.7013 5.29865 33.9999 5.66678 33.9999H28.3333C28.7014 33.9999 28.9999 33.7013 28.9999 33.3333V17.5017L33.6234 15.2671C33.9655 15.1015 34.101 14.6834 33.919 14.3484ZM21 1.86872L22.2508 3.7449L20.6501 7.74654L17.9737 6.40828L21 1.86872ZM19.7543 1.33359L17.0001 5.46502L14.2458 1.33359H19.7543ZM13.0001 1.86872L16.0264 6.40828L13.3499 7.74654L11.7493 3.7449L13.0001 1.86872ZM1.58641 14.3708L5.00012 8.0896V16.0207L1.58641 14.3708ZM27.6666 32.6667H6.33344C6.33344 31.6586 6.33344 7.32274 6.33344 5.94542L10.6153 4.5003L12.381 8.9144C12.5259 9.27646 12.9493 9.43733 13.2981 9.26306L17 7.41214L20.7018 9.26306C21.0503 9.43746 21.4741 9.27646 21.6189 8.9144L23.3846 4.5003L27.6665 5.94542C27.6666 7.32248 27.6666 31.6606 27.6666 32.6667ZM28.9999 16.0207V8.0896L32.4136 14.3708L28.9999 16.0207Z" fill="black"/>
</svg>
