<svg width="30" height="30" viewBox="0 0 30 30" fill="none" xmlns="http://www.w3.org/2000/svg">
<path d="M2.5 11.25V8.75C2.5 5 5 2.5 8.75 2.5H21.25C25 2.5 27.5 5 27.5 8.75V11.25" stroke="black" stroke-width="1.5" stroke-miterlimit="10" stroke-linecap="round" stroke-linejoin="round"/>
<path d="M2.5 18.75V21.25C2.5 25 5 27.5 8.75 27.5H21.25C25 27.5 27.5 25 27.5 21.25V18.75" stroke="black" stroke-width="1.5" stroke-miterlimit="10" stroke-linecap="round" stroke-linejoin="round"/>
<g opacity="0.4">
<path d="M8.37524 11.575L15.0002 15.4125L21.5752 11.6" stroke="black" stroke-width="1.5" stroke-linecap="round" stroke-linejoin="round"/>
<path d="M15 22.2125V15.4" stroke="black" stroke-width="1.5" stroke-linecap="round" stroke-linejoin="round"/>
<path d="M13.4503 7.86251L9.45028 10.0875C8.55028 10.5875 7.80029 11.85 7.80029 12.8875V17.1251C7.80029 18.1626 8.53778 19.425 9.45028 19.925L13.4503 22.15C14.3003 22.625 15.7003 22.625 16.5628 22.15L20.5628 19.925C21.4628 19.425 22.2128 18.1626 22.2128 17.1251V12.8875C22.2128 11.85 21.4753 10.5875 20.5628 10.0875L16.5628 7.86251C15.7003 7.37501 14.3003 7.37501 13.4503 7.86251Z" stroke="black" stroke-width="1.5" stroke-linecap="round" stroke-linejoin="round"/>
</g>
</svg>
