<svg width="16" height="16" viewBox="0 0 16 16" fill="none" xmlns="http://www.w3.org/2000/svg">
<path d="M10.9602 2.06665C9.7535 2.06665 8.6735 2.65332 8.00016 3.55332C7.32683 2.65332 6.24683 2.06665 5.04016 2.06665C2.9935 2.06665 1.3335 3.73332 1.3335 5.79332C1.3335 6.58665 1.46016 7.31998 1.68016 7.99998C2.7335 11.3333 5.98016 13.3266 7.58683 13.8733C7.8135 13.9533 8.18683 13.9533 8.4135 13.8733C10.0202 13.3266 13.2668 11.3333 14.3202 7.99998C14.5402 7.31998 14.6668 6.58665 14.6668 5.79332C14.6668 3.73332 13.0068 2.06665 10.9602 2.06665Z" fill="#EB7171"/>
<g filter="url(#filter0_f_21_3495)">
<ellipse cx="12.1981" cy="5.65262" rx="0.445009" ry="1.33503" transform="rotate(-28.2168 12.1981 5.65262)" fill="white"/>
</g>
<defs>
<filter id="filter0_f_21_3495" x="8.45508" y="1.4574" width="7.48633" height="8.3905" filterUnits="userSpaceOnUse" color-interpolation-filters="sRGB">
<feFlood flood-opacity="0" result="BackgroundImageFix"/>
<feBlend mode="normal" in="SourceGraphic" in2="BackgroundImageFix" result="shape"/>
<feGaussianBlur stdDeviation="1.5" result="effect1_foregroundBlur_21_3495"/>
</filter>
</defs>
</svg>
