<svg width="67" height="67" viewBox="0 0 67 67" fill="none" xmlns="http://www.w3.org/2000/svg">
<path fill-rule="evenodd" clip-rule="evenodd" d="M25.2036 50.0308H33.1797H41.1558L51.1797 32.0587V23.0308H15.1797V32.0587L25.2036 50.0308Z" fill="#EB7171"/>
<path d="M64.4745 32.7896L58.5819 9.23671C58.5626 9.15911 58.5359 9.08347 58.5028 9.01058C57.688 7.22697 56.764 6.27536 54.9719 5.374C54.9463 5.36105 54.9201 5.34901 54.8935 5.33775L42.5154 0.103379C42.3541 0.0352012 42.1808 0 42.0057 0H24.9944C24.8193 0 24.6461 0.0352012 24.4847 0.103379L12.1066 5.33788C12.08 5.34914 12.054 5.36118 12.0282 5.37413C10.2362 6.27536 9.31221 7.22697 8.49748 9.01072C8.46424 9.0836 8.43768 9.15924 8.41831 9.23684L2.52545 32.7896C2.44353 33.1171 2.4913 33.4635 2.65893 33.7566L12.563 51.0827V65.6914C12.563 66.4141 13.149 67 13.8716 67H53.1286C53.8512 67 54.4372 66.4141 54.4372 65.6914V51.0827L64.3413 33.7566C64.5087 33.4636 64.5565 33.1171 64.4745 32.7896ZM33.5 10.5423C38.2447 10.5423 42.2139 7.38335 43.12 3.20056L45.5877 4.24416C42.0849 15.7047 24.9105 15.6979 21.4121 4.24416L23.88 3.20056C24.7862 7.38335 28.7553 10.5423 33.5 10.5423ZM26.4316 2.61719H40.5686C38.9749 9.64708 28.0222 9.64211 26.4316 2.61719ZM48.1447 56.8169L41.3571 52.9369L52.956 32.6456C53.0691 32.4478 53.1285 32.224 53.1285 31.9962V23.031C53.0641 21.2966 50.5751 21.2979 50.5113 23.031V31.6486L38.4355 52.7743C38.0768 53.4016 38.2947 54.201 38.9222 54.5597L47.9819 59.7386C48.2833 59.9108 48.6409 59.9565 48.9756 59.865C49.3104 59.7738 49.5952 59.5532 49.7675 59.2519L51.82 55.6614V64.3828H15.1801V55.6613L17.2326 59.2518C17.591 59.8792 18.3905 60.0972 19.0182 59.7385L28.0781 54.5596C28.0781 54.5596 28.5998 54.1025 28.6913 53.7676C28.7825 53.4328 28.7371 53.0754 28.5648 52.774L16.4888 31.6483V23.0307C16.4244 21.2963 13.9353 21.2976 13.8716 23.0307V31.9959C13.8716 32.2237 13.931 32.4476 14.0441 32.6454L25.6432 52.9367L18.8554 56.8167L5.1921 32.9145L10.9271 9.9919C11.4681 8.84086 11.9705 8.3377 13.1665 7.73104L18.9889 5.26892C22.0642 15.1533 34.9473 18.6125 42.9777 12.3527C45.37 10.5317 47.129 8.04602 48.011 5.26892L53.8333 7.73104C55.0299 8.33784 55.5319 8.84073 56.0728 9.9919L61.8078 32.9144L48.1447 56.8169Z" fill="black"/>
</svg>
