<svg width="34" height="34" viewBox="0 0 34 34" fill="none" xmlns="http://www.w3.org/2000/svg">
<path fill-rule="evenodd" clip-rule="evenodd" d="M7.67331 13.0867L2.65784 7.07019L0.664062 9.38212L5.13473 14.7452L7.67331 13.0867Z" fill="#EB7171"/>
<path fill-rule="evenodd" clip-rule="evenodd" d="M26.3268 13.0865L28.8653 14.7449L33.336 9.38188L31.3422 7.06995L26.3268 13.0865Z" fill="#EB7171"/>
<path d="M33.8389 8.94816L29.7808 4.24249C28.0237 2.20502 26.8231 1.57974 24.3225 0.839905L21.5756 0.0272929C21.5145 0.00923045 21.4511 0 21.3872 0H12.6128C12.5491 0 12.4856 0.00916404 12.4244 0.0272929L9.67765 0.839905C7.17693 1.57974 5.97637 2.20502 4.21934 4.24249L0.161191 8.94816C-0.0509766 9.19419 -0.0540312 9.5575 0.154019 9.80706L4.62468 15.1701C4.8405 15.4289 5.21596 15.4852 5.49792 15.3008L7.00919 14.3134V32.6268C7.00919 32.956 7.25051 33.2356 7.57623 33.2837C14.0579 34.2342 19.9421 34.2343 26.4237 33.2837C26.7495 33.2357 26.9908 32.9561 26.9908 32.6269V14.3135L28.5021 15.3008C28.7842 15.4851 29.1596 15.4289 29.3753 15.1701L33.846 9.80712C34.0541 9.55757 34.051 9.19419 33.8389 8.94816ZM20.294 1.32812C19.1971 2.58625 17.7459 3.45677 17.0001 3.69457C16.2542 3.45684 14.803 2.58625 13.706 1.32812H20.294ZM28.7337 13.8657L26.9908 12.7271V11.0875C26.9908 10.7207 26.6935 10.4234 26.3267 10.4234C25.96 10.4234 25.6627 10.7207 25.6627 11.0875C25.6695 11.4565 25.6578 31.0115 25.6627 32.0512C19.686 32.8753 14.314 32.8753 8.33731 32.0512C8.33791 31.16 8.33691 11.237 8.33731 11.0875C8.33731 10.7208 8.04001 10.4235 7.67325 10.4235C7.30649 10.4235 7.00919 10.7208 7.00919 11.0876V12.7272L5.26629 13.8658L1.53467 9.38916L5.22512 5.10988C6.78972 3.29554 7.75573 2.79357 10.0544 2.11351L12.1488 1.49387C13.5805 3.46242 15.7342 4.83403 17.0001 5.04706C18.2656 4.8345 20.4201 3.46195 21.8513 1.49387L23.9457 2.11351C26.2443 2.79351 27.2104 3.29554 28.775 5.10988L32.4654 9.38916L28.7337 13.8657Z" fill="black"/>
<path d="M20.5 18C18.567 18 17 16.3443 17 14.302V11H24V14.302C24 16.3443 22.4331 18 20.5 18Z" fill="#EB7171"/>
</svg>
