<svg width="67" height="67" viewBox="0 0 67 67" fill="none" xmlns="http://www.w3.org/2000/svg">
<g clip-path="url(#clip0_1_2295)">
<path fill-rule="evenodd" clip-rule="evenodd" d="M15.1209 25.7917L5.23752 13.9355L1.30859 18.4914L10.1184 29.0597L15.1209 25.7917Z" fill="#EB7171"/>
<path fill-rule="evenodd" clip-rule="evenodd" d="M15.1208 25.7914V64.2975C17.4136 64.6361 19.8209 64.928 22.2859 65.1562V34.3868L15.1208 25.7914Z" fill="#EB7171"/>
<path fill-rule="evenodd" clip-rule="evenodd" d="M44.7141 34.3868V65.1564C47.1791 64.9282 49.5864 64.6362 51.8792 64.2977V25.7914L44.7141 34.3868Z" fill="#EB7171"/>
<path fill-rule="evenodd" clip-rule="evenodd" d="M51.8792 25.7914L56.8815 29.0595L65.6915 18.4912L61.7624 13.9353L51.8792 25.7914Z" fill="#EB7171"/>
<path d="M66.6825 17.6366L58.6856 8.36361C55.2231 4.34859 52.8573 3.11643 47.9296 1.65852L42.5167 0.0572011C42.3962 0.0216074 42.2712 0.00341797 42.1455 0.00341797H24.8546C24.729 0.00341797 24.6039 0.0214765 24.4834 0.0572011L19.0707 1.65852C14.1428 3.11643 11.777 4.34859 8.31457 8.36361L0.317641 17.6366C-0.100454 18.1214 -0.106473 18.8373 0.303508 19.3291L9.11334 29.8974C9.53863 30.4074 10.2785 30.5183 10.8341 30.1549L13.8122 28.2093V64.2974C13.8122 64.9462 14.2878 65.4971 14.9296 65.592C27.7023 67.465 39.2977 67.4651 52.0703 65.592C52.7122 65.4972 53.1877 64.9463 53.1877 64.2975V28.2094L56.1658 30.1551C56.7217 30.5182 57.4616 30.4074 57.8866 29.8975L66.6965 19.3292C67.1066 18.8374 67.1005 18.1214 66.6825 17.6366ZM39.9911 2.6206C37.8296 5.09986 34.9699 6.81529 33.5001 7.2839C32.0303 6.81542 29.1706 5.09986 27.009 2.6206H39.9911ZM56.6223 27.3271L53.1877 25.0834V21.8523C53.1877 21.1296 52.6019 20.5437 51.8791 20.5437C51.1564 20.5437 50.5706 21.1296 50.5706 21.8523C50.584 22.5795 50.5609 61.1144 50.5706 63.1632C38.793 64.7871 28.207 64.7871 16.4294 63.1632C16.4306 61.407 16.4286 22.1469 16.4294 21.8523C16.4294 21.1297 15.8436 20.5439 15.1208 20.5439C14.3981 20.5439 13.8122 21.1297 13.8122 21.8524V25.0835L10.3777 27.3272L3.0242 18.5056L10.2966 10.0729C13.3797 6.49756 15.2833 5.5084 19.8132 4.16827L23.9403 2.94722C26.7617 6.82641 31.0057 9.52931 33.5001 9.9491C35.994 9.53022 40.2396 6.8255 43.0599 2.94722L47.1871 4.16827C51.7168 5.50827 53.6205 6.49756 56.7037 10.0729L63.9759 18.5056L56.6223 27.3271Z" fill="black"/>
<path d="M41.5891 13.6047C38.7029 13.6047 36.3547 15.9529 36.3547 18.8391C36.6179 25.7737 46.5614 25.7719 46.8235 18.839C46.8235 15.9529 44.4755 13.6047 41.5891 13.6047ZM41.5891 21.4564C40.146 21.4564 38.9719 20.2824 38.9719 18.8392C39.1036 15.372 44.0752 15.3729 44.2063 18.8392C44.2063 20.2824 43.0322 21.4564 41.5891 21.4564Z" fill="black"/>
</g>
<defs>
<clipPath id="clip0_1_2295">
<rect width="67" height="67" fill="white"/>
</clipPath>
</defs>
</svg>
