<svg width="24" height="24" viewBox="0 0 24 24" fill="none" xmlns="http://www.w3.org/2000/svg">
<path d="M11.6126 2.91215L11.6152 2.91191C12.7507 2.80971 13.8394 3.16328 14.6853 3.92901L11.6126 2.91215ZM11.6126 2.91215C10.6198 3.0067 9.72051 3.55351 9.07626 4.30096C8.43121 5.04933 8.00999 6.03467 8.00999 7.0599V7.5799V8.0799H8.50999H15.49H15.99M11.6126 2.91215L15.99 8.0799M15.99 8.0799V7.5799M15.99 8.0799V7.5799M15.99 7.5799V6.8799C15.99 5.76091 15.5219 4.68553 14.6856 3.92925L15.99 7.5799ZM16.38 7.6399V8.08919L16.8267 8.13705C18.1548 8.27935 19.0292 8.67785 19.5878 9.2938C20.3924 10.2005 20.401 11.4405 20.2934 12.4112L19.5939 17.9978L19.5938 17.9978L19.5929 18.0061C19.492 18.9385 19.26 19.7797 18.6246 20.3995C17.9928 21.0157 16.8704 21.4999 14.79 21.4999H9.20999C7.1295 21.4999 6.0074 21.0157 5.37566 20.3985C4.74022 19.7777 4.50811 18.9341 4.40712 17.9964L4.40719 17.9964L4.40609 17.9876L3.70657 12.4214C3.59852 11.4359 3.59919 10.1996 4.41131 9.29475C4.96989 8.67826 5.84452 8.27942 7.17326 8.13705L7.61999 8.08919V7.6399V7.0599C7.61999 4.7993 9.45184 2.72165 11.5672 2.51767C12.8191 2.40076 14.0189 2.79593 14.9429 3.63922L14.9429 3.63923L14.9451 3.64119C15.8589 4.46535 16.38 5.64991 16.38 6.8799V7.6399ZM8.40999 13.6499H8.41999C9.24613 13.6499 9.91999 12.976 9.91999 12.1499C9.91999 11.3205 9.24289 10.6499 8.40999 10.6499C7.58385 10.6499 6.90999 11.3238 6.90999 12.1499C6.90999 12.976 7.58385 13.6499 8.40999 13.6499ZM15.41 13.6499H15.42C16.2461 13.6499 16.92 12.976 16.92 12.1499C16.92 11.3205 16.2429 10.6499 15.41 10.6499C14.5838 10.6499 13.91 11.3238 13.91 12.1499C13.91 12.976 14.5838 13.6499 15.41 13.6499Z" fill="#EB7171" stroke="#EB7171"/>
</svg>
