<svg width="16" height="16" viewBox="0 0 16 16" fill="none" xmlns="http://www.w3.org/2000/svg">
<path d="M9.04257 2.8674L10.1001 4.99672C10.2427 5.2912 10.6252 5.57058 10.9477 5.63099L12.8603 5.94812C14.0829 6.15199 14.3679 7.04299 13.4904 7.93398L11.9978 9.43659C11.7503 9.68577 11.6077 10.1766 11.6903 10.5315L12.1178 12.3889C12.4553 13.8538 11.6753 14.4277 10.3927 13.6575L8.60004 12.5853C8.27752 12.389 7.73748 12.389 7.41496 12.5853L5.62234 13.6575C4.33975 14.4201 3.5597 13.8538 3.89722 12.3889L4.32475 10.5315C4.39225 10.169 4.24974 9.67822 4.00223 9.42904L2.50963 7.92643C1.63207 7.04299 1.91708 6.15199 3.13967 5.94057L5.0523 5.62344C5.37482 5.57058 5.75735 5.28365 5.89986 4.98917L6.95743 2.85985C7.53497 1.71213 8.46503 1.71213 9.04257 2.8674Z" fill="#F8E74D"/>
</svg>
