<svg width="34" height="34" viewBox="0 0 34 34" fill="none" xmlns="http://www.w3.org/2000/svg">
<g clip-path="url(#clip0_1_2066)">
<path fill-rule="evenodd" clip-rule="evenodd" d="M7.67331 13.0884L2.65784 7.0719L0.664062 9.38383L5.13473 14.7469L7.67331 13.0884Z" fill="#EB7171"/>
<path fill-rule="evenodd" clip-rule="evenodd" d="M7.67334 13.0881V32.6286C8.83684 32.8004 10.0585 32.9485 11.3093 33.0643V17.45L7.67334 13.0881Z" fill="#EB7171"/>
<path fill-rule="evenodd" clip-rule="evenodd" d="M22.6908 17.45V33.0644C23.9417 32.9486 25.1633 32.8004 26.3268 32.6286V13.0881L22.6908 17.45Z" fill="#EB7171"/>
<path fill-rule="evenodd" clip-rule="evenodd" d="M26.3268 13.0882L28.8653 14.7466L33.336 9.38359L31.3422 7.07166L26.3268 13.0882Z" fill="#EB7171"/>
<path d="M33.8389 8.94987L29.7808 4.2442C28.0237 2.20672 26.8231 1.58144 24.3225 0.841614L21.5756 0.0290019C21.5145 0.0109394 21.4511 0.00170898 21.3872 0.00170898H12.6128C12.5491 0.00170898 12.4856 0.010873 12.4244 0.0290019L9.67765 0.841614C7.17693 1.58144 5.97637 2.20672 4.21934 4.2442L0.161191 8.94987C-0.0509766 9.1959 -0.0540312 9.55921 0.154019 9.80876L4.62468 15.1718C4.8405 15.4306 5.21596 15.4869 5.49792 15.3025L7.00919 14.3152V32.6285C7.00919 32.9577 7.25051 33.2373 7.57623 33.2855C14.0579 34.2359 19.9421 34.236 26.4237 33.2855C26.7495 33.2374 26.9908 32.9578 26.9908 32.6286V14.3152L28.5021 15.3025C28.7842 15.4868 29.1596 15.4306 29.3753 15.1719L33.846 9.80883C34.0541 9.55928 34.051 9.1959 33.8389 8.94987ZM20.294 1.32983C19.1971 2.58796 17.7459 3.45848 17.0001 3.69628C16.2542 3.45855 14.803 2.58796 13.706 1.32983H20.294ZM28.7337 13.8674L26.9908 12.7288V11.0892C26.9908 10.7224 26.6935 10.4251 26.3267 10.4251C25.96 10.4251 25.6627 10.7224 25.6627 11.0892C25.6695 11.4582 25.6578 31.0132 25.6627 32.053C19.686 32.877 14.314 32.877 8.33731 32.053C8.33791 31.1617 8.33691 11.2387 8.33731 11.0892C8.33731 10.7225 8.04001 10.4252 7.67325 10.4252C7.30649 10.4252 7.00919 10.7225 7.00919 11.0893V12.7289L5.26629 13.8675L1.53467 9.39087L5.22512 5.11159C6.78972 3.29725 7.75573 2.79528 10.0544 2.11522L12.1488 1.49558C13.5805 3.46412 15.7342 4.83574 17.0001 5.04877C18.2656 4.83621 20.4201 3.46366 21.8513 1.49558L23.9457 2.11522C26.2443 2.79522 27.2104 3.29725 28.775 5.11159L32.4654 9.39087L28.7337 13.8674Z" fill="black"/>
<path d="M21.1049 6.90393C19.6402 6.90393 18.4486 8.09552 18.4486 9.56018C18.5822 13.0792 23.6281 13.0783 23.7611 9.56011C23.7611 8.09552 22.5696 6.90393 21.1049 6.90393ZM21.1049 10.8884C20.3725 10.8884 19.7767 10.2926 19.7767 9.56025C19.8435 7.80075 22.3664 7.80121 22.433 9.56025C22.433 10.2926 21.8372 10.8884 21.1049 10.8884Z" fill="black"/>
</g>
<defs>
<clipPath id="clip0_1_2066">
<rect width="34" height="34" fill="white"/>
</clipPath>
</defs>
</svg>
